<?xml version="1.0" standalone="no"?>
<!DOCTYPE svg PUBLIC "-//W3C//DTD SVG 20010904//EN"
 "http://www.w3.org/TR/2001/REC-SVG-20010904/DTD/svg10.dtd">
<svg version="1.0" xmlns="http://www.w3.org/2000/svg"
 width="512.000000pt" height="512.000000pt" viewBox="0 0 512.000000 512.000000"
 preserveAspectRatio="xMidYMid meet">
<metadata>
Created by potrace 1.11, written by Peter Selinger 2001-2013
</metadata>
<g transform="translate(0.000000,512.000000) scale(0.100000,-0.100000)"
fill="#000000" stroke="none">
<path d="M1130 2560 l0 -1590 795 0 795 0 0 298 0 298 -485 0 c-267 -1 -491 1
-498 4 -9 4 -12 228 -12 993 0 543 2 987 5 988 29 5 992 2 1040 -3 287 -30
533 -168 690 -386 73 -101 109 -177 158 -332 19 -60 26 -139 26 -290 -1 -146
-20 -260 -60 -356 -8 -19 -14 -36 -14 -39 0 -3 -12 -26 -26 -52 -102 -188
-232 -319 -409 -414 -41 -22 -75 -47 -75 -56 0 -8 9 -35 19 -61 11 -26 56
-145 100 -265 44 -121 82 -221 85 -224 7 -8 53 11 161 65 312 155 562 403 715
710 43 88 102 238 115 295 2 12 11 51 20 87 22 99 30 182 30 330 0 153 -7 226
-36 353 -44 198 -125 380 -251 565 -73 107 -282 313 -395 390 -185 126 -420
223 -623 257 -19 4 -48 9 -65 13 -16 3 -429 7 -917 9 l-888 4 0 -1591z"/>
</g>
</svg>
